<mxfile host="app.diagrams.net" modified="2023-04-24T09:33:28.710Z" agent="Mozilla/5.0 (Macintosh; Intel Mac OS X 10_15_7) AppleWebKit/537.36 (KHTML, like Gecko) Chrome/111.0.0.0 Safari/537.36" version="21.2.1" etag="r2ycR9LuckCwmfajZsGT" type="github">
  <diagram name="第 1 页" id="t-3Psv4gxiR-WM3EXvxW">
    <mxGraphModel>
      <root>
        <mxCell id="0" />
        <mxCell id="1" parent="0" />
      </root>
    </mxGraphModel>
  </diagram>
</mxfile>
